<?xml version="1.0" encoding="UTF-8"?>
<!DOCTYPE svg PUBLIC "-//W3C//DTD SVG 1.1//EN" "http://www.w3.org/Graphics/SVG/1.1/DTD/svg11.dtd">
<!-- Creator: CorelDRAW -->
<svg xmlns="http://www.w3.org/2000/svg" xml:space="preserve" width="1119px" height="508px" version="1.1" style="shape-rendering:geometricPrecision; text-rendering:geometricPrecision; image-rendering:optimizeQuality; fill-rule:evenodd; clip-rule:evenodd"
viewBox="0 0 1119 507.86"
 xmlns:xlink="http://www.w3.org/1999/xlink"
 xmlns:xodm="http://www.corel.com/coreldraw/odm/2003">
 <defs>
  <style type="text/css">
   <![CDATA[
    .fil0 {fill:gray;fill-rule:nonzero}
   ]]>
  </style>
 </defs>
 <g id="Слой_x0020_1">
  <metadata id="CorelCorpID_0Corel-Layer"/>
  <path class="fil0" d="M2.19 507.86c-1.4,0 -2.54,-1.13 -2.54,-2.51 0,-1.39 1.14,-2.52 2.54,-2.52 7.54,0 8.54,-4.55 9.35,-8.24 0.92,-4.19 1.69,-7.72 6.78,-7.72l1097.79 0c1.4,0 2.54,1.12 2.54,2.51 0,1.39 -1.14,2.52 -2.54,2.52l-1097.79 0c-1,0 -1.38,1.71 -1.82,3.76 -1.2,5.46 -2.68,12.2 -14.31,12.2zm0 -502.83c-1.4,0 -2.54,-1.13 -2.54,-2.52 0,-1.38 1.14,-2.51 2.54,-2.51 11.63,0 13.11,6.74 14.31,12.21 0.44,2.04 0.82,3.76 1.82,3.76l1097.79 0c1.4,0 2.54,1.12 2.54,2.51 0,1.39 -1.14,2.51 -2.54,2.51l-1097.79 0c-5.09,0 -5.86,-3.53 -6.78,-7.73 -0.81,-3.68 -1.81,-8.23 -9.35,-8.23z"/>
 </g>
</svg>
