<?xml version="1.0" encoding="UTF-8"?>
<!DOCTYPE svg PUBLIC "-//W3C//DTD SVG 1.1//EN" "http://www.w3.org/Graphics/SVG/1.1/DTD/svg11.dtd">
<!-- Creator: CorelDRAW -->
<svg xmlns="http://www.w3.org/2000/svg" xml:space="preserve" width="44px" height="508px" version="1.1" style="shape-rendering:geometricPrecision; text-rendering:geometricPrecision; image-rendering:optimizeQuality; fill-rule:evenodd; clip-rule:evenodd"
viewBox="0 0 44 508.02"
 xmlns:xlink="http://www.w3.org/1999/xlink"
 xmlns:xodm="http://www.corel.com/coreldraw/odm/2003">
 <defs>
  <style type="text/css">
   <![CDATA[
    .fil0 {fill:gray;fill-rule:nonzero}
   ]]>
  </style>
 </defs>
 <g id="Слой_x0020_1">
  <metadata id="CorelCorpID_0Corel-Layer"/>
  <path class="fil0" d="M2.57 21c-1.42,0 -2.57,-1.13 -2.57,-2.51 0,-1.39 1.15,-2.52 2.57,-2.52 5.57,0 10.28,1.89 13.62,5.16l0.14 0.15c3.26,3.26 5.13,7.82 5.13,13.17l0 439.11c0,5.36 -1.87,9.91 -5.13,13.18l-0.14 0.15c-3.34,3.27 -8.05,5.15 -13.62,5.15 -1.42,0 -2.57,-1.12 -2.57,-2.51 0,-1.39 1.15,-2.51 2.57,-2.51 4.15,0 7.6,-1.35 9.99,-3.69l0.12 -0.11c2.31,-2.33 3.64,-5.66 3.64,-9.66l0 -439.1c0,-4 -1.33,-7.34 -3.64,-9.66l-0.12 -0.12c-2.39,-2.33 -5.84,-3.68 -9.99,-3.68zm38.86 -5.03c1.42,0 2.57,1.13 2.57,2.52 0,1.38 -1.15,2.51 -2.57,2.51 -4.15,0 -7.6,1.35 -9.99,3.68l-0.12 0.12c-2.31,2.32 -3.64,5.66 -3.64,9.65l0 439.11c0,4 1.33,7.33 3.64,9.66l0.12 0.11c2.39,2.34 5.84,3.69 9.99,3.69 1.42,0 2.57,1.12 2.57,2.51 0,1.39 -1.15,2.51 -2.57,2.51 -5.57,0 -10.28,-1.88 -13.62,-5.15l-0.14 -0.15c-3.26,-3.27 -5.13,-7.82 -5.13,-13.18l0 -439.1c0,-5.36 1.87,-9.92 5.13,-13.18l0.14 -0.15c3.34,-3.27 8.05,-5.16 13.62,-5.16z"/>
 </g>
</svg>
